# xmcd
#
# Track frame offsets:
#       150
#       9467
#       19377
#       31660
#       41855
#       50445
#       62447
#       74142
#       86302
#       99240
#       111972
#       122700
#       136177
#       147535
#       158292
#       166330
#       178342
#       191345
#       207020
#       218692
#       227372
#       238635
#       251267
#       273202
#
# Disc length: 3792 seconds
#
# Revision: 2
# Processed by: cddbd v1.4PL0 Copyright (c) Steve Scherf et al.
# Submitted via: CD-DA_X-Tractor v0.21
#
DISCID=3e0ece18
DTITLE=Various Artist - Uptown Down South
DYEAR=1900
DGENRE=
TTITLE0=Freddie North  - I've Got To Hold Back
TTITLE1=Roger Hatcher - Sweetest Girl In The World
TTITLE2=Frank Howard - Judy
TTITLE3=Percy Wiggins - That's Loving You
TTITLE4=Lucille Mathis - I'm Not Your Regular Woman
TTITLE5=The Avons - Since I Met You Baby
TTITLE6=Marva Whitney - Don't Let Our Love Fade Away
TTITLE7=Shirey Brown - Even If The Signs Are Wrong
TTITLE8=Bobby Powell - Childhood Days
TTITLE9=Freddie North - Just Another Guy
TTITLE10=The Hy-Tones - Bigger And Better
TTITLE11=Kelly Brothers - Cryin' Days Are Over
TTITLE12=Lee Bracket - Save A Foolish  Man
TTITLE13=Marion James - That's My Man
TTITLE14=Bessie Jones - No More Tears
TTITLE15=Jerry Washington - Set Your Soul On Fire
TTITLE16=Z Z Hill - Our Love Is Getting Better
TTITLE17=Kelly Brothers - Crystal Blue Persuasion
TTITLE18=Bernie Shaw - What Price For Love
TTITLE19=Wallace Brothers - Thanks A Lot
TTITLE20=The Avons - I Would If I Could
TTITLE21=Bits 'n' Pieces - Keep On Running Away
TTITLE22=Skip Mahoney and The Casuals - Running Away From Love
TTITLE23=Little Johnny Truitt - Just The Other Day
EXTD=
EXTT0=
EXTT1=
EXTT2=
EXTT3=
EXTT4=
EXTT5=
EXTT6=
EXTT7=
EXTT8=
EXTT9=
EXTT10=
EXTT11=
EXTT12=
EXTT13=
EXTT14=
EXTT15=
EXTT16=
EXTT17=
EXTT18=
EXTT19=
EXTT20=
EXTT21=
EXTT22=
EXTT23=
PLAYORDER=
